<svg xmlns="http://www.w3.org/2000/svg" viewBox="0 0 50 50" style="enable-background:new 0 0 50 50" xml:space="preserve"><style>.st0{display:none}.st1{fill:#6db0ff}.st2{fill:none;stroke:#6db0ff;stroke-linecap:round;stroke-miterlimit:10}</style><g id="Слой_2"><g id="XMLID_1_"><path class="st1" d="m31.79 18.73-.35-.34c.17-.22.14-.57-.08-.74l.11-.12-.59-.53-.28.21c-3.44 3.56-6.88 7.12-10.32 10.67h-.12c-.83-.72-1.67-1.45-2.5-2.18l-.27.31a.482.482 0 0 0-.25-.21l.34-.36L31.6 7.98l.12-.22 11.49-.38-1.27 11.15-17.26 13.26-.23-.17c-.83-.73-1.66-1.45-2.49-2.17l-.27-.21c3.37-3.5 6.73-7 10.1-10.51zM24.45 34.91v.04c-1.01 1.05-2.01 2.11-3.02 3.17h-.19c-1-.96-1.99-1.92-2.99-2.88-1.48-1.43-2.95-2.86-4.43-4.28-.76-.73-1.52-1.47-2.28-2.2l-.15-.2c1-1.06 2.01-2.12 3.01-3.18l.34.17c.46.44.91.88 1.37 1.32l8.34 8.04zM16.77 36.77v.15c-.73.8-1.45 1.6-2.17 2.4l-.11.03c-1.44-1.41-2.89-2.83-4.34-4.24v-.2c.72-.79 1.43-1.58 2.14-2.37l.14.12c1.44 1.37 2.89 2.74 4.34 4.11zM12.79 41.77v.1c-.78.77-1.56 1.53-2.34 2.3l-.22.18c-1.87-1.82-3.73-3.64-5.59-5.46v-.19c.78-.86 1.56-1.72 2.35-2.58l.21.19c1.86 1.82 3.72 3.64 5.59 5.46z"/><g><path class="st2" d="M31.6 7.98 17.48 25.44M24.68 31.79l17.26-13.26M31.72 7.76l11.49-.38"/><path style="fill:none;stroke:#6db0ff;stroke-miterlimit:10" d="m41.94 18.53 1.27-11.15"/><path class="st2" d="M21.96 29.45c.83.72 1.66 1.44 2.49 2.17M17.66 25.7c.83.73 1.67 1.46 2.5 2.18M30.6 17.21c-3.44 3.56-6.88 7.12-10.32 10.67M32.15 18.36c-.12.12-.24.25-.36.37-3.37 3.51-6.73 7.01-10.1 10.51M32.15 18.13c-.22-.2-.45-.4-.68-.6l-.59-.53M14.74 25.55c.46.44.91.88 1.37 1.32l8.34 8.04M11.54 28.76c.76.73 1.52 1.47 2.28 2.2 1.48 1.42 2.95 2.85 4.43 4.28 1 .96 1.99 1.92 2.99 2.88M14.4 25.38c-1 1.06-2.01 2.12-3.01 3.18M24.45 34.95c-1.01 1.05-2.01 2.11-3.02 3.17M12.43 32.66c1.44 1.37 2.89 2.74 4.34 4.11M10.15 35.11c1.45 1.41 2.9 2.83 4.34 4.24M7.2 36.31c1.86 1.82 3.72 3.64 5.59 5.46M4.64 38.89c1.86 1.82 3.72 3.64 5.59 5.46M12.32 32.51l-.03.03c-.71.79-1.42 1.58-2.14 2.37M16.77 36.92c-.73.8-1.45 1.6-2.17 2.4M7.01 36.09c-.01.01-.02.02-.02.03-.79.86-1.57 1.72-2.35 2.58M12.79 41.87c-.78.77-1.56 1.53-2.34 2.3"/></g></g></g></svg>