<svg xmlns="http://www.w3.org/2000/svg" viewBox="0 0 50 50" style="enable-background:new 0 0 50 50" xml:space="preserve"><style>.st1{fill:none;stroke:#6db0ff;stroke-miterlimit:10}</style><g id="Слой_1"><g id="XMLID_1_"><g id="XMLID_2_"><path d="m7.3 27-2-2C3.9 23.2 3 20.9 3 18.4c0-6.1 4.9-11 11-11 5.8 0 10.6 4.5 10.9 10.3.3-6 5.2-10.7 11.2-10.7 6.2 0 11.2 5 11.2 11.2 0 2.5-.8 4.8-2.2 6.6l-2.4 2.4L25 44.8 7.3 27z" style="fill:#6db0ff"/><path class="st1" d="M9 28c-.6-.3-1.1-.7-1.6-1.1-.8-.6-1.4-1.3-2-2-1.4-1.8-2.3-4.1-2.3-6.6 0-6.1 4.9-11 11-11 5.8 0 10.6 4.5 10.9 10.3M42.8 27.1c-.3.2-.5.4-.8.5M25 17.6c.3-6 5.2-10.7 11.2-10.7 6.2 0 11.2 5 11.2 11.2 0 2.5-.8 4.8-2.2 6.6-.7.9-1.5 1.7-2.4 2.4"/><path class="st1" d="m5 24.6.3.4 2 2L25 44.8"/><path style="fill:none;stroke:#6db0ff;stroke-linecap:round;stroke-miterlimit:10" d="M42.8 27.1 25 44.8"/><path class="st1" d="m45.2 24.7-2.4 2.4"/></g></g></g></svg>