<svg xmlns="http://www.w3.org/2000/svg" viewBox="0 0 55 55" style="enable-background:new 0 0 55 55" xml:space="preserve"><style>.st3{fill:#fff}.st4,.st5{fill:none;stroke:#fff;stroke-miterlimit:10}.st5{stroke-linejoin:round}</style><g id="Слой_3"><g id="XMLID_1_"><path class="st3" d="M35 24h2.5v15h-19V24H35zm-5.5 10.3v-4.7h-3v4.7h3zM35 24h-4c-.1-2.5-1.4-4.5-3-4.5s-2.8 2-3 4.5h-4c.2-4.4 3.2-8 7-8s6.8 3.5 7 8z"/><g><path class="st4" d="M21 24.4v-.5c.2-4.4 3.2-8 7-8M35 24.4v-.5c-.2-4.4-3.2-8-7-8M25 24.4v-.5c.1-2.5 1.4-4.5 3-4.5M31 24.4v-.5c-.1-2.5-1.4-4.5-3-4.5"/><path class="st5" d="M35 24h2.5v15h-19V24H31z"/><path class="st5" d="M26.5 29.6h3v4.7h-3z"/></g></g></g></svg>