<svg xmlns="http://www.w3.org/2000/svg" viewBox="0 0 50 50" style="enable-background:new 0 0 50 50" xml:space="preserve"><style>.st1{fill:#6db0ff}.st2{fill:none;stroke:#6db0ff;stroke-width:1.75;stroke-linecap:round;stroke-miterlimit:10}</style><g id="Слой_4"><g id="XMLID_2_"><path class="st1" d="M40 33.3v.1c0 1-.8 1.8-1.8 1.8H23.3c-1 0-1.8-.8-1.8-1.8v-.1c0-1 .8-1.8 1.8-1.8h14.9c1 0 1.8.8 1.8 1.8zM40 26v.1c0 1-.8 1.8-1.8 1.8H23.3c-1 0-1.8-.8-1.8-1.8V26c0-1 .8-1.8 1.8-1.8h14.9c1 0 1.8.8 1.8 1.8zM40 18.8v.1c0 1-.8 1.8-1.8 1.8H23.3c-1 0-1.8-.8-1.8-1.8v-.1c0-1 .8-1.8 1.8-1.8h14.9c1 0 1.8.8 1.8 1.8z"/><g><path class="st2" d="M38.2 20.7H23.3c-1 0-1.8-.8-1.8-1.8v-.1c0-1 .8-1.8 1.8-1.8h14.9c1 0 1.8.8 1.8 1.8v.1c0 1-.8 1.8-1.8 1.8zM38.2 27.9H23.3c-1 0-1.8-.8-1.8-1.8V26c0-1 .8-1.8 1.8-1.8h14.9c1 0 1.8.8 1.8 1.8v.1c0 1-.8 1.8-1.8 1.8zM38.2 35.2H23.3c-1 0-1.8-.8-1.8-1.8v-.1c0-1 .8-1.8 1.8-1.8h14.9c1 0 1.8.8 1.8 1.8v.1c0 1-.8 1.8-1.8 1.8z"/></g></g><g id="XMLID_1_"><path class="st1" d="M15.1 30.8c1.1 0 2 .9 2 2v.2c0 1.1-.9 2-2 2H15c-1.1 0-2-.9-2-2v-.2c0-1.1.9-2 2-2h.1zM15.1 23.6c1.1 0 2 .9 2 2v.1c0 1.1-.9 2-2 2H15c-1.1 0-2-.9-2-2v-.1c0-1.1.9-2 2-2h.1zM15.1 16.3c1.1 0 2 .9 2 2v.1c0 1.1-.9 2-2 2H15c-1.1 0-2-.9-2-2v-.1c0-1.1.9-2 2-2h.1z"/><g><path class="st2" d="M15.1 20.5H15c-1.1 0-2-.9-2-2v-.1c0-1.1.9-2 2-2h.1c1.1 0 2 .9 2 2v.1c0 1.1-.8 2-2 2zM15.1 27.7H15c-1.1 0-2-.9-2-2v-.1c0-1.1.9-2 2-2h.1c1.1 0 2 .9 2 2v.1c0 1.1-.8 2-2 2zM15.1 35H15c-1.1 0-2-.9-2-2v-.2c0-1.1.9-2 2-2h.1c1.1 0 2 .9 2 2v.2c0 1.1-.8 2-2 2z"/></g></g></g></svg>