<svg xmlns="http://www.w3.org/2000/svg" viewBox="0 0 50 50" style="enable-background:new 0 0 50 50" xml:space="preserve"><style>.st1{fill:none;stroke:#6db0ff;stroke-width:1.75;stroke-linecap:round;stroke-miterlimit:10}</style><g id="Слой_4"><path class="st1" d="M38.2 20.7h-15c-1 0-1.8-.8-1.8-1.8v-.1c0-1 .8-1.8 1.8-1.8h15c1 0 1.8.8 1.8 1.8v.1c0 1-.8 1.8-1.8 1.8zM15.1 20.5H15c-1.1 0-2-.9-2-2v-.1c0-1.1.9-2 2-2h.1c1.1 0 2 .9 2 2v.1c0 1.1-.9 2-2 2zM38.2 27.9h-15c-1 0-1.8-.8-1.8-1.8V26c0-1 .8-1.8 1.8-1.8h15c1 0 1.8.8 1.8 1.8v.1c0 1-.8 1.8-1.8 1.8zM15.1 27.7H15c-1.1 0-2-.9-2-2v-.1c0-1.1.9-2 2-2h.1c1.1 0 2 .9 2 2v.1c0 1.1-.9 2-2 2zM38.2 35.2h-15c-1 0-1.8-.8-1.8-1.8v-.1c0-1 .8-1.8 1.8-1.8h15c1 0 1.8.8 1.8 1.8v.1c0 1-.8 1.8-1.8 1.8zM15.1 35H15c-1.1 0-2-.9-2-2v-.1c0-1.1.9-2 2-2h.1c1.1 0 2 .9 2 2v.1c0 1.1-.9 2-2 2z"/></g></svg>