<svg xmlns="http://www.w3.org/2000/svg" viewBox="0 0 50 50" style="enable-background:new 0 0 50 50" xml:space="preserve"><style>.st1,.st2{fill:none;stroke:#6db0ff;stroke-width:1.75;stroke-miterlimit:10}.st2{stroke-linecap:round}</style><g id="Слой_2"><circle class="st1" cx="15" cy="20" r="3"/><circle class="st1" cx="25.5" cy="19.5" r="4.5"/><path class="st2" d="M21 27h9M18.6 34h14M18 34c0-3.9 1.3-7 3-7M33 34c0-3.9-1.3-7-3-7M16 27h-5M14 34H8M8 34c0-3.9 1.3-7 3-7M14 34c0-2.2.2-5.2 2.1-6.7"/><circle class="st1" cx="36" cy="20" r="3"/><path class="st2" d="M35 27h5M37 34h6M43 34c0-3.9-1.3-7-3-7M37 34c0-2.2-.2-5.2-2.1-6.7"/></g></svg>