<svg xmlns="http://www.w3.org/2000/svg" viewBox="0 0 50 50" style="enable-background:new 0 0 50 50" xml:space="preserve"><style>.st1{fill:#6db0ff}.st2,.st3{fill:none;stroke:#6db0ff;stroke-width:1.75;stroke-miterlimit:10}.st3{stroke-linecap:round}</style><g id="Слой_2"><g id="XMLID_1_"><path class="st1" d="M43 34h-6c0-2.2-.2-5.2-2.1-6.7l.1-.3h5c1.7 0 3 3.1 3 7zM33 34H18c0-3.9 1.3-7 3-7h9c1.7 0 3 3.1 3 7zM16 27l.1.3C14.2 28.8 14 31.8 14 34H8c0-3.9 1.3-7 3-7h5z"/><circle class="st1" cx="15" cy="20" r="3"/><circle class="st1" cx="25.5" cy="19.5" r="4.5"/><circle class="st1" cx="36" cy="20" r="3"/><g><circle class="st2" cx="15" cy="20" r="3"/><circle class="st2" cx="25.5" cy="19.5" r="4.5"/><path class="st3" d="M21 27h9M18.6 34h14M18 34c0-3.9 1.3-7 3-7M33 34c0-3.9-1.3-7-3-7M16 27h-5M14 34H8M8 34c0-3.9 1.3-7 3-7M14 34c0-2.2.2-5.2 2.1-6.7"/><circle class="st2" cx="36" cy="20" r="3"/><path class="st3" d="M35 27h5M37 34h6M43 34c0-3.9-1.3-7-3-7M37 34c0-2.2-.2-5.2-2.1-6.7"/></g></g></g></svg>