<svg xmlns="http://www.w3.org/2000/svg" viewBox="0 0 50 50" style="enable-background:new 0 0 50 50" xml:space="preserve"><style>.st1{fill:none;stroke:#6db0ff;stroke-width:1.75;stroke-linecap:round;stroke-miterlimit:10}</style><g id="Слой_2"><path class="st1" d="m7 37 2 2M7 37l6-6M9 39l6-6M13 31l-3-3M18 36l-3-3M10 28l3-3M18 36l3-3M13 25l2 2M19 31l2 2M15 27l10-13M19 31l13-11M25 14l10-4M32 20l3-10M40 37l-2 2M40 37l-6-6M38 39l-6-6M34 31l3-3M29 36l3-3M37 28l-3-3M29 36l-3-3M34 25l-2 2M28 31l-2 2M26 29l2 2M30 25l2 2M26 29l4-4M16 21l5-6M12 11l4 10M21 15l-9-4"/></g></svg>