<svg version="1.1" id="Слой_1" xmlns="http://www.w3.org/2000/svg" x="0" y="0" viewBox="0 0 50 50" style="enable-background:new 0 0 50 50" xml:space="preserve"><style>.st1{fill:#6db0ff}.st2{fill:none;stroke:#6db0ff;stroke-width:1.75;stroke-linecap:round;stroke-miterlimit:10}</style><g id="Слой_2"><g id="XMLID_1_"><path class="st1" d="m34 31 6 6-2 2-6-6-3 3-3-3 2-2-2-2 4-4 2 2 2-2 3 3zM21 15l-5 6-4-10zM13 31l-3-3 3-3 2 2 10-13 10-4-3 10-13 11 2 2-3 3-3-3-6 6-2-2z"/><g><path class="st2" d="m7 37 2 2M7 37l6-6M9 39l6-6M13 31l-3-3M18 36l-3-3M10 28l3-3M18 36l3-3M13 25l2 2M19 31l2 2M15 27l10-13M19 31l13-11M25 14l10-4M32 20l3-10M40 37l-2 2M40 37l-6-6M38 39l-6-6M34 31l3-3M29 36l3-3M37 28l-3-3M29 36l-3-3M34 25l-2 2M28 31l-2 2M26 29l2 2M30 25l2 2M26 29l4-4M16 21l5-6M12 11l4 10M21 15l-9-4"/></g></g></g></svg>